<?xml version="1.0" encoding="UTF-8" standalone="no"?>
<!-- Created with Inkscape (http://www.inkscape.org/) -->

<svg
   xmlns:dc="http://purl.org/dc/elements/1.1/"
   xmlns:cc="http://creativecommons.org/ns#"
   xmlns:rdf="http://www.w3.org/1999/02/22-rdf-syntax-ns#"
   xmlns:svg="http://www.w3.org/2000/svg"
   xmlns="http://www.w3.org/2000/svg"
   version="1.1"
   width="161"
   height="300"
   id="svg2">
  <metadata
     id="metadata833">
    <rdf:RDF>
      <cc:Work
         rdf:about="">
        <dc:format>image/svg+xml</dc:format>
        <dc:type
           rdf:resource="http://purl.org/dc/dcmitype/StillImage" />
        <dc:title></dc:title>
      </cc:Work>
    </rdf:RDF>
  </metadata>
  <defs
     id="defs4">
    <filter
       style="color-interpolation-filters:sRGB"
       id="filter3706">
      <feGaussianBlur
         id="feGaussianBlur3708"
         stdDeviation="5.340000000000004" />
    </filter>
  </defs>
  <g
     transform="translate(-68.79791116367454,118.8296383595692)"
     id="g884">
    <path
       d="m 189.4066799777335,-19.71822419469645 c -0.4336339404946,-25.10751299621025 -38.7297578593258,-55.77294420073979 -33.4048733992377,-72.34203303779293 4.5124049635177,2.11231776769803 11.6029830216839,-4.40940544955075 8.7840880746416,-13.09166972662922 -1.6361228933846,-5.0392988914016 -5.4909672404126,-9.5850671728249 -13.4295192679616,-5.7434422026502 -8.5704090509341,4.1473936704603 -7.5439748454306,13.8542488459448 -7.4749211019786,22.97376881060091 4.2823659136208,18.31587502340019 17.5667490728205,38.89017287574486 26.4789578019242,58.36350826516628 4.7825872959157,19.2029435903078 -3.7579720723427,23.719078412761749 -10.8534165153023,29.8152220225813131 1.3816370506769,12.7014129644453568 -2.5338715599927,18.467207292750146 -2.5338715599927,30.9132330319115169 0,12.4460257391614 3.9155086106696,18.21182006746616 2.5338715599927,30.91323303191152 7.0954444429596,6.09614360981954 15.636003811218,10.6122730266809 10.8534165153023,29.81522202258132 -8.9122087291037,19.47333674081963 -22.1965918883034,40.04763053896972 -26.4789578019242,58.36350826516622 -0.069056446248,9.119518613258 -1.0954879489555,18.8263818971314 7.4749211019786,22.9737688106009 7.938552027549,3.8416195645822 11.793396374577,-0.7041460140449 13.4295192679616,-5.7434422026502 2.8188949470423,-8.6822602228839 -4.2716831111239,-15.203986142929 -8.7840880746416,-13.0916697266292 -5.4966552752904,-17.1035789740244 35.4815426347325,-49.2244214064743 33.3204110139046,-74.74921101978567 -0.4467235831239,-5.2761827730059 -1.1640443778826,-11.97350937065397 -15.3299229379561,-25.84548991192599 -3.1951985231692,-3.128905686169 0.6756990826648,-16.17618198306712 0.6756990826648,-22.63591926926856 0,-6.45973728620146 -3.870897605834,-19.50701358309956 -0.6756990826648,-22.635919269268523 14.1658785600735,-13.87198054127208 14.8831993548322,-20.569307138920127 15.3299229379561,-25.845489911926016 0.067529366322,-0.79764925310405 0.098449356344,-1.59725803354783 0.084462385333,-2.4071779819931 z"
       id="path2914"
       style="fill:#e9e9e9;stroke:#000000;stroke-width:3" />
    <path
       d="M 156.0018065784958,154.4009831694718 143.8814542831972,150.2623262881503 84.71555335736653,36.28033728114326"
       id="path2933"
       style="fill:none;stroke:#000000;stroke-width:3" />
    <path
       d="m 156.0018065784958,-92.06025723248937 -12.1203522952986,4.1386568813215 -59.16590092583067,113.98198900700704"
       id="path3707"
       style="fill:none;stroke:#000000;stroke-width:3" />
    <path
       d="M 126.0176597852483,26.06038865583917 C 116.6352050365549,17.5147412734884 102.9332925487968,6.613958252491332 83.7864671187025,7.900975809224491 70.28544537381337,8.808493733169825 74.25278550971603,19.29235690618111 84.71555335736653,26.06038865583917 c 1.05011745835091,0.67928028780287 2.03694894061945,1.82753628091999 3.20957064265745,2.40717798199313 l 38.09253578522432,-2.40717798199313 z m 0,10.21994862530409 -38.09253578522433,-2.4071779819931 c -1.17262170203801,0.57964170107312 -2.15945318430656,1.72789769419026 -3.20957064265745,2.4071779819931 -10.46276784765051,6.7680317496581 -14.43010798355317,17.25189492266935 -0.92908623866404,18.15941284661468 19.14682543009432,1.28701755673316 32.84873791785242,-9.6137654642639 42.23119266654583,-18.15941284661468 z"
       id="path2920"
       style="fill:#e9e9e9;stroke:#000000;stroke-width:3" />
    <path
       d="m 222.0091607163069,31.17036296849122 c -11.1571081166078,-6.7290709405516 -23.4599370033745,-13.73589474602341 -34.2072660599021,-21.284521103939056 1.626946899842,6.734260309506479 1.9290641222849,12.245451223463156 4.7298935786531,16.174546791287006 l -107.81623487769134,0 0,10.21994862530409 107.81623487769134,0 c -2.8008294563682,3.92909556782385 -3.1029466788111,9.44028648178056 -4.7298935786531,16.17454679128705 10.7473290565276,-7.54862635791568 23.0501579432943,-14.55545016338747 34.2072660599021,-21.28452110393909 z"
       id="path2922"
       style="fill:#e9e9e9;stroke:#000000;stroke-width:3" />
  </g>
  <g
     transform="translate(-871.2378899999996,-372.02484)"
     id="layer3" />
  <g
     transform="translate(-871.2378899999996,-372.02484)"
     id="layer1">
    <g
       transform="translate(-680.42857,-324.9136)"
       id="g9086" />
    <g
       transform="translate(-623.99985,-401.55394)"
       id="g9088" />
    <g
       transform="translate(-623.99985,-401.55394)"
       id="layer2" />
    <g
       transform="translate(-623.99985,-401.55394)"
       id="g9289" />
  </g>
  <g
     transform="translate(-814.8091699999996,-448.66518)"
     id="layer4" />
  <g
     transform="translate(-814.8091699999996,-448.66518)"
     id="layer5" />
  <g
     transform="translate(-814.8091699999996,-448.66518)"
     id="layer6" />
</svg>
